<?xml version="1.0" encoding="UTF-8" standalone="no"?>
<!-- Created with Inkscape (http://www.inkscape.org/) -->

<svg
   width="400mm"
   height="230mm"
   viewBox="0 0 400 230"
   version="1.1"
   id="svg1"
   xml:space="preserve"
   inkscape:version="1.3.2 (091e20e, 2023-11-25, custom)"
   sodipodi:docname="logo.svg"
   xmlns:inkscape="http://www.inkscape.org/namespaces/inkscape"
   xmlns:sodipodi="http://sodipodi.sourceforge.net/DTD/sodipodi-0.dtd"
   xmlns="http://www.w3.org/2000/svg"
   xmlns:svg="http://www.w3.org/2000/svg"><sodipodi:namedview
     id="namedview1"
     pagecolor="#111111"
     bordercolor="#000000"
     borderopacity="0.25"
     inkscape:showpageshadow="2"
     inkscape:pageopacity="0.0"
     inkscape:pagecheckerboard="0"
     inkscape:deskcolor="#d1d1d1"
     inkscape:document-units="mm"
     inkscape:zoom="0.34583057"
     inkscape:cx="500.24496"
     inkscape:cy="394.70195"
     inkscape:window-width="1360"
     inkscape:window-height="787"
     inkscape:window-x="-8"
     inkscape:window-y="-8"
     inkscape:window-maximized="1"
     inkscape:current-layer="layer1" /><defs
     id="defs1" /><g
     inkscape:label="Layer 1"
     inkscape:groupmode="layer"
     id="layer1"><path
       id="path26"
       stroke="#000000"
       d="m 70.081767,15.01186 c -7.608664,-0.197542 -16.507152,17.970816 -16.211306,34.173707 0.0689,4.935035 1.626327,14.943891 3.898917,27.5142 -14.332599,14.834528 -30.975717,30.058873 -30.975717,50.034523 -0.228542,18.30586 10.959423,41.62813 37.503419,41.40378 4.074211,-0.0265 7.740467,-0.53275 10.997321,-1.40199 2.426841,13.30499 4.040565,23.80596 4.030705,28.65682 0.08535,19.12328 -25.039638,21.01599 -26.243975,10.0243 5.295338,-0.1823 9.508336,-4.38823 9.508336,-9.58968 0,-5.31357 -4.399464,-9.64573 -9.858859,-9.64573 -3.001664,0 -5.676698,1.31789 -7.490883,3.37884 -0.04241,0.0424 -0.0911,0.0843 -0.131909,0.12616 -0.409602,0.43451 -0.754252,0.95332 -1.094969,1.54219 -1.118756,1.89271 -1.845021,4.61258 -1.884287,8.49608 0,16.01081 40.482729,26.31551 40.482729,-5.25745 0.063,-4.24808 -1.763738,-15.02946 -4.424725,-28.61482 28.885366,-10.4449 21.628647,-53.33199 -4.950433,-53.53389 -2.06096,0.0211 -4.047563,0.26071 -5.958498,0.74588 -1.514164,-7.28619 -2.975068,-14.357878 -4.250885,-20.856105 10.093019,-9.913563 18.905971,-22.746046 18.708261,-46.396353 0.0318,-16.983798 -5.627625,-30.60281 -11.653362,-30.80049 z m 1.795963,16.430015 c 3.443267,-0.332293 6.177179,2.864284 6.177179,9.900908 C 78.333631,53.42801 69.86722,63.982244 59.785506,74.596773 58.820895,68.782693 58.188625,64.071971 58.119901,61.277791 58.406035,42.398487 66.137913,31.995662 71.87773,31.441875 Z m -10.822039,62.65109 c 1.229554,6.330005 2.557252,12.999335 3.89893,19.716265 -17.592263,6.25852 -26.035088,30.77951 -1.09497,41.75292 -15.201823,-12.94185 -7.719369,-28.26147 3.241443,-30.93089 2.75632,13.76201 5.448157,27.3418 7.624102,39.07651 -2.954024,1.03747 -6.401545,1.64033 -10.428116,1.66836 -10.067734,0 -30.186398,-6.4071 -30.186398,-30.66871 0,-20.32056 14.085877,-28.5783 26.945009,-40.614455 z m 8.543777,30.099495 c 0.438753,-0.0265 0.914109,-0.0159 1.357156,0 18.314285,0 25.221917,29.08445 6.572533,38.37971 -2.320283,-11.66467 -5.134103,-25.03969 -7.929689,-38.37971 z"
       style="fill:#ffffff;fill-opacity:1;stroke:#ffffff;stroke-width:1.402;stroke-opacity:1" /><text
       xml:space="preserve"
       style="font-size:85.4289px;letter-spacing:2.64583px;fill:#ffffff;fill-opacity:1;stroke:#ffffff;stroke-width:7.11909;stroke-opacity:1"
       x="137.34457"
       y="109.31676"
       id="text1"><tspan
         id="tspan1"
         style="font-style:normal;font-variant:normal;font-weight:300;font-stretch:normal;font-family:'League Spartan';-inkscape-font-specification:'League Spartan Light';letter-spacing:2.64583px;stroke-width:7.11909"
         x="137.34457"
         y="109.31676"
         sodipodi:role="line">Guess</tspan></text><text
       xml:space="preserve"
       style="font-size:64.5282px;letter-spacing:2.64583px;fill:#ffffff;fill-opacity:1;stroke:#ffffff;stroke-width:5.37736;stroke-opacity:1"
       x="120.01231"
       y="178.18799"
       id="text1-3"><tspan
         id="tspan1-8"
         style="font-style:normal;font-variant:normal;font-weight:300;font-stretch:normal;font-family:'League Spartan';-inkscape-font-specification:'League Spartan Light';letter-spacing:2.64583px;stroke-width:5.37736"
         x="120.01231"
         y="178.18799"
         sodipodi:role="line"
         dx="0">The Pitch</tspan></text></g></svg>
