<?xml version="1.0" encoding="UTF-8" standalone="no"?>
<!-- Created with Inkscape (http://www.inkscape.org/) -->

<svg
   width="400mm"
   height="230mm"
   viewBox="0 0 400 230"
   version="1.1"
   id="svg1"
   xml:space="preserve"
   inkscape:version="1.3.2 (091e20e, 2023-11-25, custom)"
   sodipodi:docname="logo.svg"
   xmlns:inkscape="http://www.inkscape.org/namespaces/inkscape"
   xmlns:sodipodi="http://sodipodi.sourceforge.net/DTD/sodipodi-0.dtd"
   xmlns="http://www.w3.org/2000/svg"
   xmlns:svg="http://www.w3.org/2000/svg"><sodipodi:namedview
     id="namedview1"
     pagecolor="#111111"
     bordercolor="#000000"
     borderopacity="0.25"
     inkscape:showpageshadow="2"
     inkscape:pageopacity="0.0"
     inkscape:pagecheckerboard="0"
     inkscape:deskcolor="#d1d1d1"
     inkscape:document-units="mm"
     inkscape:zoom="0.34583057"
     inkscape:cx="500.24496"
     inkscape:cy="394.70195"
     inkscape:window-width="1360"
     inkscape:window-height="787"
     inkscape:window-x="-8"
     inkscape:window-y="-8"
     inkscape:window-maximized="1"
     inkscape:current-layer="layer1"
     showgrid="false" /><defs
     id="defs1" /><g
     inkscape:label="Layer 1"
     inkscape:groupmode="layer"
     id="layer1"><path
       id="path26"
       stroke="#000000"
       d="m 70.081767,15.01186 c -7.608664,-0.197542 -16.507152,17.970816 -16.211306,34.173707 0.0689,4.935035 1.626327,14.943891 3.898917,27.5142 -14.332599,14.834528 -30.975717,30.058873 -30.975717,50.034523 -0.228542,18.30586 10.959423,41.62813 37.503419,41.40378 4.074211,-0.0265 7.740467,-0.53275 10.997321,-1.40199 2.426841,13.30499 4.040565,23.80596 4.030705,28.65682 0.08535,19.12328 -25.039638,21.01599 -26.243975,10.0243 5.295338,-0.1823 9.508336,-4.38823 9.508336,-9.58968 0,-5.31357 -4.399464,-9.64573 -9.858859,-9.64573 -3.001664,0 -5.676698,1.31789 -7.490883,3.37884 -0.04241,0.0424 -0.0911,0.0843 -0.131909,0.12616 -0.409602,0.43451 -0.754252,0.95332 -1.094969,1.54219 -1.118756,1.89271 -1.845021,4.61258 -1.884287,8.49608 0,16.01081 40.482729,26.31551 40.482729,-5.25745 0.063,-4.24808 -1.763738,-15.02946 -4.424725,-28.61482 28.885366,-10.4449 21.628647,-53.33199 -4.950433,-53.53389 -2.06096,0.0211 -4.047563,0.26071 -5.958498,0.74588 -1.514164,-7.28619 -2.975068,-14.357878 -4.250885,-20.856105 10.093019,-9.913563 18.905971,-22.746046 18.708261,-46.396353 0.0318,-16.983798 -5.627625,-30.60281 -11.653362,-30.80049 z m 1.795963,16.430015 c 3.443267,-0.332293 6.177179,2.864284 6.177179,9.900908 C 78.333631,53.42801 69.86722,63.982244 59.785506,74.596773 58.820895,68.782693 58.188625,64.071971 58.119901,61.277791 58.406035,42.398487 66.137913,31.995662 71.87773,31.441875 Z m -10.822039,62.65109 c 1.229554,6.330005 2.557252,12.999335 3.89893,19.716265 -17.592263,6.25852 -26.035088,30.77951 -1.09497,41.75292 -15.201823,-12.94185 -7.719369,-28.26147 3.241443,-30.93089 2.75632,13.76201 5.448157,27.3418 7.624102,39.07651 -2.954024,1.03747 -6.401545,1.64033 -10.428116,1.66836 -10.067734,0 -30.186398,-6.4071 -30.186398,-30.66871 0,-20.32056 14.085877,-28.5783 26.945009,-40.614455 z m 8.543777,30.099495 c 0.438753,-0.0265 0.914109,-0.0159 1.357156,0 18.314285,0 25.221917,29.08445 6.572533,38.37971 -2.320283,-11.66467 -5.134103,-25.03969 -7.929689,-38.37971 z"
       style="fill:#ffffff;fill-opacity:1;stroke:#ffffff;stroke-width:1.402;stroke-opacity:1" /><path
       id="text1"
       style="font-size:85.4289px;letter-spacing:2.64583px;fill:#ffffff;fill-opacity:1;stroke:#ffffff;stroke-width:7.11909;stroke-opacity:1"
       d="M 166.94588 51.908459 C 162.9592 51.908459 159.28557 52.677577 155.92537 54.215295 C 152.56517 55.724538 149.64623 57.831628 147.16879 60.536873 C 144.69136 63.242119 142.75518 66.360283 141.35985 69.891341 C 139.99299 73.393923 139.30933 77.124188 139.30933 81.082389 C 139.30933 85.069067 139.99299 88.828163 141.35985 92.35922 C 142.75518 95.861802 144.69136 98.965551 147.16879 101.6708 C 149.64623 104.37604 152.56517 106.49755 155.92537 108.03527 C 159.28557 109.57298 162.9592 110.3421 166.94588 110.3421 C 170.84713 110.3421 174.44921 109.6013 177.75246 108.12053 C 181.08418 106.63977 183.9887 104.58982 186.46614 101.97 C 188.94357 99.350186 190.86585 96.331378 192.23271 92.914225 C 193.62805 89.497073 194.32561 85.83785 194.32561 81.936601 L 194.32561 79.117651 L 166.00589 79.117651 L 166.00589 83.261068 L 189.19982 83.261068 C 189.05744 86.336505 188.41703 89.22661 187.27797 91.931856 C 186.13892 94.637102 184.58679 97.029395 182.62193 99.108162 C 180.65707 101.15845 178.33633 102.76721 175.65956 103.93474 C 173.01127 105.10227 170.10675 105.68606 166.94588 105.68606 C 163.67111 105.68606 160.6384 105.04512 157.84773 103.76369 C 155.08553 102.45378 152.67882 100.66021 150.62853 98.382109 C 148.60672 96.104007 147.04069 93.484172 145.93011 90.52264 C 144.81954 87.561108 144.26406 84.414113 144.26406 81.082389 C 144.26406 77.750665 144.81954 74.604188 145.93011 71.642655 C 147.04069 68.681123 148.60672 66.075704 150.62853 63.826078 C 152.67882 61.576453 155.08553 59.810676 157.84773 58.529244 C 160.6384 57.219335 163.67111 56.564506 166.94588 56.564506 C 170.73323 56.564506 174.12166 57.375835 177.11167 58.998983 C 180.10168 60.62213 182.57943 62.75805 184.54429 65.406344 L 188.60192 62.886084 C 187.49135 61.319889 186.18117 59.867629 184.67193 58.529244 C 183.19117 57.190859 181.53968 56.023285 179.7172 55.026615 C 177.89471 54.029946 175.91581 53.261345 173.78009 52.720296 C 171.64437 52.179247 169.36637 51.908459 166.94588 51.908459 z M 265.31197 73.222921 C 261.66701 73.222921 258.54884 74.020352 255.9575 75.615023 C 253.39464 77.209694 251.43015 79.373928 250.06329 82.10765 C 248.69643 84.841372 248.01277 87.916807 248.01277 91.33396 C 248.01277 94.92197 248.69643 98.153905 250.06329 101.03001 C 251.45863 103.90611 253.46584 106.18412 256.08566 107.86422 C 258.73395 109.51584 261.92368 110.3421 265.65407 110.3421 C 268.21693 110.3421 270.4239 110.043 272.27485 109.445 C 274.15429 108.847 275.77746 107.97852 277.14432 106.83947 C 278.53966 105.67195 279.76386 104.27631 280.81748 102.65317 L 277.78459 99.663167 C 277.38593 100.48898 276.70278 101.42901 275.73459 102.48263 C 274.79487 103.50778 273.51353 104.41898 271.89038 105.21632 C 270.29571 105.98518 268.30239 106.36922 265.91038 106.36922 C 262.97733 106.36922 260.54231 105.71439 258.60592 104.40448 C 256.66953 103.09457 255.21727 101.37204 254.24908 99.23632 C 253.30936 97.1006 252.82545 94.80818 252.79697 92.35922 L 281.54354 92.35922 C 281.57201 92.13141 281.58643 91.817894 281.58643 91.419226 C 281.61491 91.020558 281.62932 90.693144 281.62932 90.436857 C 281.62932 87.019704 280.94566 84.029726 279.5788 81.466862 C 278.24042 78.875521 276.34697 76.853889 273.89801 75.401599 C 271.47753 73.949309 268.61522 73.222921 265.31197 73.222921 z M 305.07699 73.222921 C 302.79888 73.222921 300.67738 73.607479 298.71252 74.376339 C 296.77613 75.145198 295.224 76.227315 294.05647 77.622652 C 292.88894 78.989513 292.30516 80.612688 292.30516 82.492122 C 292.30516 84.001365 292.59036 85.325439 293.15988 86.46449 C 293.75789 87.575064 294.56921 88.528995 295.59436 89.326331 C 296.61951 90.123666 297.78708 90.792911 299.09699 91.33396 C 300.43537 91.846533 301.83049 92.287719 303.28278 92.65791 C 304.79202 93.028102 306.21597 93.483703 307.55435 94.024752 C 308.89274 94.537325 309.97486 95.2354 310.80067 96.118164 C 311.62648 97.000928 312.03935 98.168503 312.03935 99.620793 C 312.03935 101.61413 311.17088 103.22289 309.43383 104.44737 C 307.72525 105.67185 305.5466 106.28395 302.89831 106.28395 C 300.62021 106.28395 298.62689 105.88549 296.91831 105.08816 C 295.23821 104.26235 294.02842 103.46492 293.28804 102.69606 L 290.85305 106.49738 C 291.45105 107.00995 292.31952 107.56542 293.45857 108.16342 C 294.6261 108.76143 296.02173 109.27417 297.64488 109.70131 C 299.26803 110.12846 301.03329 110.3421 302.9412 110.3421 C 304.79216 110.3421 306.55793 110.12846 308.23803 109.70131 C 309.91813 109.27417 311.41312 108.63324 312.72303 107.77895 C 314.06142 106.92466 315.1147 105.82865 315.88356 104.49026 C 316.65242 103.1234 317.03698 101.50023 317.03698 99.620793 C 317.03698 97.42812 316.53865 95.676758 315.54198 94.36685 C 314.54531 93.028465 313.20682 91.974662 311.52672 91.205802 C 309.8751 90.436943 308.03828 89.796012 306.01646 89.283439 C 303.36817 88.628485 301.23277 87.788842 299.60962 86.763696 C 297.98647 85.73855 297.17463 84.357333 297.17463 82.62028 C 297.17463 80.826275 297.97206 79.459472 299.56673 78.519755 C 301.18988 77.580038 303.14047 77.110022 305.41857 77.110022 C 307.26952 77.110022 308.93543 77.437437 310.41619 78.092391 C 311.89696 78.718869 312.93635 79.317071 313.53435 79.886597 L 315.88356 76.512126 C 315.34251 76.084982 314.53118 75.614965 313.44908 75.102393 C 312.36699 74.561343 311.09954 74.120158 309.64725 73.778442 C 308.22344 73.408251 306.70013 73.222921 305.07699 73.222921 z M 340.99727 73.222921 C 338.71917 73.222921 336.59767 73.607479 334.6328 74.376339 C 332.69642 75.145198 331.14428 76.227315 329.97676 77.622652 C 328.80923 78.989513 328.22596 80.612688 328.22596 82.492122 C 328.22596 84.001365 328.51065 85.325439 329.08017 86.46449 C 329.67817 87.575064 330.4895 88.528995 331.51465 89.326331 C 332.53979 90.123666 333.70737 90.792911 335.01728 91.33396 C 336.35566 91.846533 337.75129 92.287719 339.20358 92.65791 C 340.71283 93.028102 342.13626 93.483703 343.47464 94.024752 C 344.81303 94.537325 345.89514 95.2354 346.72096 96.118164 C 347.54677 97.000928 347.95964 98.168503 347.95964 99.620793 C 347.95964 101.61413 347.09117 103.22289 345.35411 104.44737 C 343.64554 105.67185 341.46741 106.28395 338.81911 106.28395 C 336.54101 106.28395 334.54769 105.88549 332.83912 105.08816 C 331.15902 104.26235 329.94871 103.46492 329.20833 102.69606 L 326.77334 106.49738 C 327.37134 107.00995 328.23981 107.56542 329.37886 108.16342 C 330.54639 108.76143 331.94202 109.27417 333.56517 109.70131 C 335.18832 110.12846 336.95358 110.3421 338.86149 110.3421 C 340.71244 110.3421 342.47822 110.12846 344.15832 109.70131 C 345.83842 109.27417 347.33341 108.63324 348.64332 107.77895 C 349.9817 106.92466 351.03499 105.82865 351.80385 104.49026 C 352.57271 103.1234 352.95727 101.50023 352.95727 99.620793 C 352.95727 97.42812 352.45894 95.676758 351.46227 94.36685 C 350.4656 93.028465 349.12711 91.974662 347.44701 91.205802 C 345.79539 90.436943 343.95908 89.796012 341.93727 89.283439 C 339.28897 88.628485 337.15305 87.788842 335.52991 86.763696 C 333.90676 85.73855 333.09491 84.357333 333.09491 82.62028 C 333.09491 80.826275 333.89234 79.459472 335.48702 78.519755 C 337.11016 77.580038 339.06075 77.110022 341.33885 77.110022 C 343.18981 77.110022 344.85572 77.437437 346.33648 78.092391 C 347.81725 78.718869 348.85664 79.317071 349.45464 79.886597 L 351.80385 76.512126 C 351.2628 76.084982 350.45147 75.614965 349.36937 75.102393 C 348.28727 74.561343 347.01983 74.120158 345.56754 73.778442 C 344.14372 73.408251 342.62042 73.222921 340.99727 73.222921 z M 205.38643 74.248181 L 205.38643 93.426855 C 205.38643 96.701627 205.99853 99.620562 207.22301 102.18343 C 208.44749 104.71782 210.22716 106.71113 212.56222 108.16342 C 214.89727 109.61571 217.74517 110.3421 221.10537 110.3421 C 224.49404 110.3421 227.35584 109.61571 229.69089 108.16342 C 232.02594 106.71113 233.80562 104.71782 235.0301 102.18343 C 236.25458 99.620562 236.86668 96.701627 236.86668 93.426855 L 236.86668 74.248181 L 231.99721 74.248181 L 231.99721 92.572644 C 231.99721 96.673227 231.10042 99.933993 229.30642 102.35448 C 227.51241 104.74648 224.77881 105.94237 221.10537 105.94237 C 217.4604 105.94237 214.72628 104.74648 212.9038 102.35448 C 211.1098 99.933993 210.21301 96.673227 210.21301 92.572644 L 210.21301 74.248181 L 205.38643 74.248181 z M 265.35486 77.195288 C 268.20249 77.195288 270.43777 77.807906 272.06091 79.032385 C 273.71254 80.228389 274.89453 81.694547 275.60643 83.4316 C 276.34682 85.140176 276.73137 86.763351 276.75985 88.30107 L 253.0104 88.30107 C 253.18125 86.677923 253.66517 85.012019 254.4625 83.303442 C 255.25984 81.594866 256.52729 80.157021 258.26434 78.989494 C 260.02987 77.79349 262.39333 77.195288 265.35486 77.195288 z " /><path
       id="text1-3"
       style="font-size:64.5282px;letter-spacing:2.64583px;fill:#ffffff;fill-opacity:1;stroke:#ffffff;stroke-width:5.37736;stroke-opacity:1"
       d="M 158.08389 133.79235 L 158.08389 178.18809 L 161.82681 178.18809 L 161.82681 163.37866 C 161.82681 161.61489 162.2568 160.02337 163.11718 158.60376 C 163.97755 157.18414 165.06382 156.06576 166.37589 155.2484 C 167.70947 154.43105 169.09678 154.02212 170.53791 154.02212 C 172.66734 154.02212 174.40989 154.67841 175.76498 155.99048 C 177.14158 157.28104 177.82946 159.39938 177.82946 162.34616 L 177.82946 178.18809 L 181.57238 178.18809 L 181.57238 161.47542 C 181.57238 159.00184 181.05609 156.99035 180.02364 155.44167 C 178.99119 153.87149 177.67914 152.73154 176.08744 152.02173 C 174.49575 151.29041 172.87161 150.92464 171.21539 150.92464 C 169.58068 150.92464 168.07495 151.2583 166.69835 151.92509 C 165.34326 152.59188 164.22489 153.38764 163.343 154.31254 C 162.48263 155.21594 161.97738 156.04432 161.82681 156.79715 L 161.82681 133.79235 L 158.08389 133.79235 z M 347.73381 133.79235 L 347.73381 178.18809 L 351.47622 178.18809 L 351.47622 163.37866 C 351.47622 161.61489 351.90672 160.02337 352.7671 158.60376 C 353.62747 157.18414 354.71374 156.06576 356.02581 155.2484 C 357.3594 154.43105 358.74671 154.02212 360.18783 154.02212 C 362.31726 154.02212 364.0593 154.67841 365.41439 155.99048 C 366.79099 157.28104 367.47938 159.39938 367.47938 162.34616 L 367.47938 178.18809 L 371.2223 178.18809 L 371.2223 161.47542 C 371.2223 159.00184 370.70601 156.99035 369.67356 155.44167 C 368.64111 153.87149 367.32906 152.73154 365.73737 152.02173 C 364.14567 151.29041 362.52153 150.92464 360.86531 150.92464 C 359.2306 150.92464 357.72487 151.2583 356.34827 151.92509 C 354.99318 152.59188 353.87481 153.38764 352.99292 154.31254 C 352.13255 155.21594 351.62679 156.04432 351.47622 156.79715 L 351.47622 133.79235 L 347.73381 133.79235 z M 281.39833 135.30905 C 280.6455 135.30905 279.98922 135.58852 279.42997 136.14776 C 278.87073 136.6855 278.59126 137.35231 278.59126 138.14816 C 278.59126 138.92249 278.8602 139.58931 279.39793 140.14855 C 279.95718 140.68629 280.62399 140.95522 281.39833 140.95522 C 282.19417 140.95522 282.87152 140.68629 283.43076 140.14855 C 284.01151 139.58931 284.30203 138.92249 284.30203 138.14816 C 284.30203 137.61042 284.16204 137.13728 283.88241 136.72861 C 283.6243 136.29842 283.26958 135.95422 282.81788 135.69611 C 282.38769 135.438 281.91455 135.30905 281.39833 135.30905 z M 121.04481 135.59948 L 121.04481 138.98687 L 133.17585 138.98687 L 133.17585 178.18809 L 136.82214 178.18809 L 136.82214 138.98687 L 148.95318 138.98687 L 148.95318 135.59948 L 121.04481 135.59948 z M 244.42332 135.59948 L 244.42332 178.18809 L 248.03706 178.18809 L 248.03706 160.82998 L 254.87695 160.82998 C 257.50109 160.82998 259.8673 160.37841 261.97522 159.47502 C 264.10465 158.57163 265.80405 157.17327 267.0731 155.28044 C 268.34216 153.36611 268.97635 150.93568 268.97635 147.9889 C 268.97635 144.9991 268.34216 142.60078 267.0731 140.79399 C 265.80405 138.9872 264.10465 137.67515 261.97522 136.8578 C 259.8673 136.01893 257.50109 135.59948 254.87695 135.59948 L 244.42332 135.59948 z M 248.03706 138.82563 L 253.90905 138.82563 C 255.97395 138.82563 257.85598 139.10562 259.55522 139.66486 C 261.25446 140.20259 262.60966 141.13783 263.6206 142.47141 C 264.65305 143.78348 265.16934 145.6334 265.16934 148.02094 C 265.16934 150.38697 264.65305 152.28004 263.6206 153.69966 C 262.60966 155.09777 261.25446 156.09773 259.55522 156.7 C 257.85598 157.30226 255.97395 157.6033 253.90905 157.6033 L 248.03706 157.6033 L 248.03706 138.82563 z M 298.56317 140.82603 L 298.56317 151.69927 L 293.04568 151.69927 L 293.04568 155.02258 L 298.56317 155.02258 L 298.56317 171.7027 C 298.56317 174.2408 299.17578 176.09072 300.40182 177.25223 C 301.64936 178.39223 303.16613 178.9622 304.95141 178.9622 C 305.98386 178.9622 306.86541 178.84379 307.59673 178.60719 C 308.32805 178.39209 308.9196 178.15578 309.3713 177.89767 C 309.82299 177.61805 310.11351 177.42437 310.24256 177.31683 L 308.53259 174.50976 C 308.44655 174.61731 308.16709 174.83256 307.69388 175.1552 C 307.22067 175.47784 306.52124 175.63889 305.59633 175.63889 C 304.62841 175.63889 303.82212 175.26259 303.17684 174.50976 C 302.53156 173.75693 302.20894 172.49857 302.20894 170.7348 L 302.20894 155.02258 L 309.43589 155.02258 L 309.43589 151.69927 L 302.20894 151.69927 L 302.20894 140.82603 L 298.56317 140.82603 z M 203.76999 150.92464 C 201.01679 150.92464 198.66163 151.52724 196.70427 152.73176 C 194.76843 153.93629 193.28428 155.57096 192.25183 157.63586 C 191.21938 159.70076 190.70309 162.02381 190.70309 164.60494 C 190.70309 167.31512 191.21938 169.75608 192.25183 171.92852 C 193.30579 174.10097 194.82256 175.82195 196.80142 177.091 C 198.8018 178.33854 201.21064 178.9622 204.02837 178.9622 C 205.96422 178.9622 207.63099 178.73642 209.0291 178.28472 C 210.44872 177.83303 211.67498 177.17726 212.70743 176.31689 C 213.76139 175.435 214.68609 174.38084 215.48194 173.15481 L 213.19112 170.89655 C 212.88999 171.52032 212.37421 172.22977 211.6429 173.02561 C 210.93309 173.79995 209.96471 174.48834 208.73868 175.0906 C 207.53415 175.67136 206.02895 175.96187 204.22216 175.96187 C 202.00669 175.96187 200.1673 175.46715 198.70467 174.47772 C 197.24203 173.48829 196.14523 172.18677 195.41391 170.57357 C 194.7041 168.96036 194.33833 167.22886 194.31682 165.37905 L 216.03074 165.37905 C 216.05225 165.20698 216.06278 164.97067 216.06278 164.66954 C 216.08429 164.3684 216.09534 164.12105 216.09534 163.92746 C 216.09534 161.34634 215.57904 159.08749 214.54659 157.15165 C 213.53565 155.19429 212.10519 153.66751 210.25538 152.57053 C 208.42709 151.47355 206.26508 150.92464 203.76999 150.92464 z M 329.7623 150.92464 C 327.63287 150.92464 325.57875 151.45198 323.59989 152.50594 C 321.62102 153.53839 319.98636 155.09779 318.69579 157.1842 C 317.42674 159.2491 316.79255 161.83005 316.79255 164.9274 C 316.79255 168.00324 317.42674 170.58419 318.69579 172.6706 C 319.98636 174.75701 321.62102 176.32746 323.59989 177.38142 C 325.57875 178.43538 327.63287 178.9622 329.7623 178.9622 C 331.35399 178.9622 332.77393 178.77958 334.02147 178.41392 C 335.29053 178.06977 336.32311 177.69346 337.11896 177.28479 C 337.9148 176.8546 338.39847 176.57462 338.57055 176.44556 L 336.63475 173.60646 C 336.37664 173.84306 335.67772 174.26252 334.53772 174.86478 C 333.39772 175.44553 331.88147 175.73604 329.98864 175.73604 C 328.46148 175.73604 326.95575 175.31659 325.47161 174.47772 C 323.98746 173.63886 322.7612 172.4126 321.79328 170.79939 C 320.84687 169.18619 320.37373 167.2289 320.37373 164.9274 C 320.37373 162.6259 320.84687 160.67914 321.79328 159.08745 C 322.7612 157.47424 323.98746 156.2485 325.47161 155.40964 C 326.95575 154.57077 328.46148 154.15131 329.98864 154.15131 C 331.2577 154.15131 332.34345 154.32341 333.24684 154.66756 C 334.15024 155.01171 334.8602 155.38801 335.37643 155.79669 C 335.91416 156.18386 336.27993 156.46333 336.47352 156.6354 L 338.37728 153.82834 C 338.18369 153.61324 337.69951 153.26956 336.92517 152.79636 C 336.15083 152.32315 335.1614 151.89265 333.95688 151.50548 C 332.75235 151.11831 331.35399 150.92464 329.7623 150.92464 z M 279.52712 151.69927 L 279.52712 178.18809 L 283.1729 178.18809 L 283.1729 151.69927 L 279.52712 151.69927 z M 203.80255 153.92549 C 205.95348 153.92549 207.64184 154.38758 208.86787 155.31248 C 210.11542 156.21588 211.00801 157.32372 211.54574 158.6358 C 212.10499 159.92636 212.3955 161.15262 212.41701 162.31412 L 194.47805 162.31412 C 194.60711 161.08809 194.97288 159.82972 195.57514 158.53916 C 196.1774 157.2486 197.13473 156.16233 198.4468 155.28044 C 199.78038 154.37705 201.56557 153.92549 203.80255 153.92549 z " /></g></svg>
